<svg xmlns="http://www.w3.org/2000/svg" xmlns:xlink="http://www.w3.org/1999/xlink" width="227.334" height="36.667" viewBox="0 0 227.334 36.667"><path fill="#FEEC66" d="M-1258.334-153.167h1140v23.8h-1140z"/><path fill="#FEE60B" d="M-1258.334-129.365h1140v130.9h-1140z"/><path fill="none" stroke="#303030" stroke-width=".298" stroke-miterlimit="10" d="M-1230.085 1.533v-48.02m95.795 48.02v-48.02m127.776 48.02v-48.02m121.096 48.02v-48.02m168.98 48.02v-48.02m141.61 48.02v-48.02m104.72 48.02v-48.02m110.67 48.02v-48.02m111.35 48.02v-48.02"/><text transform="translate(-1222.945 -33.443)" font-family="'AkkuratPro-Regular'" font-size="16.66">About</text><text transform="translate(-1222.945 -15.6)" font-family="'AkkuratPro-Regular'" font-size="16.66">Us</text><text transform="translate(-1127.15 -33.443)" font-family="'AkkuratPro-Regular'" font-size="16.66">Expl</text><text transform="translate(-1093.764 -33.435)"><tspan x="0" y="0" font-family="'AkkuratPro-Regular'" font-size="16.66">o</tspan><tspan x="9.146" y="0" font-family="'AkkuratPro-Regular'" font-size="16.66">r</tspan><tspan x="14.444" y="0" font-family="'AkkuratPro-Regular'" font-size="16.66">e the</tspan></text><text transform="translate(-1127.15 -15.593)"><tspan x="0" y="0" font-family="'AkkuratPro-Regular'" font-size="16.66">A</tspan><tspan x="10.196" y="0" font-family="'AkkuratPro-Regular'" font-size="16.66">r</tspan><tspan x="15.36" y="0" font-family="'AkkuratPro-Regular'" font-size="16.66">c</tspan><tspan x="22.708" y="0" font-family="'AkkuratPro-Regular'" font-size="16.66">hi</tspan><tspan x="35.852" y="0" font-family="'AkkuratPro-Regular'" font-size="16.66">v</tspan><tspan x="43.782" y="0" font-family="'AkkuratPro-Regular'" font-size="16.66">es</tspan></text><text transform="translate(-999.368 -33.435)"><tspan x="0" y="0" font-family="'AkkuratPro-Regular'" font-size="16.66">Sea</tspan><tspan x="24.59" y="0" font-family="'AkkuratPro-Regular'" font-size="16.66">r</tspan><tspan x="29.754" y="0" font-family="'AkkuratPro-Regular'" font-size="16.66">c</tspan><tspan x="37.118" y="0" font-family="'AkkuratPro-Regular'" font-size="16.66">h the</tspan></text><text transform="translate(-999.368 -15.593)"><tspan x="0" y="0" font-family="'AkkuratPro-Regular'" font-size="16.66">Col</tspan><tspan x="22.74" y="0" font-family="'AkkuratPro-Regular'" font-size="16.66">l</tspan><tspan x="26.605" y="0" font-family="'AkkuratPro-Regular'" font-size="16.66">e</tspan><tspan x="34.952" y="0" font-family="'AkkuratPro-Regular'" font-size="16.66">c</tspan><tspan x="42.333" y="0" font-family="'AkkuratPro-Regular'" font-size="16.66">tion</tspan></text><text transform="translate(-878.267 -33.435)" font-family="'AkkuratPro-Regular'" font-size="16.66">R</text><text transform="translate(-867.41 -33.435)"><tspan x="0" y="0" font-family="'AkkuratPro-Regular'" font-size="16.66">eco</tspan><tspan x="24.957" y="0" font-family="'AkkuratPro-Regular'" font-size="16.66">r</tspan><tspan x="30.121" y="0" font-family="'AkkuratPro-Regular'" font-size="16.66">d</tspan><tspan x="39.517" y="0" font-family="'AkkuratPro-Regular'" font-size="16.66">k</tspan><tspan x="47.181" y="0" font-family="'AkkuratPro-Regular'" font-size="16.66">eeping</tspan></text><text transform="translate(-878.273 -15.593)"><tspan x="0" y="0" font-family="'AkkuratPro-Regular'" font-size="16.66">f</tspan><tspan x="4.631" y="0" font-family="'AkkuratPro-Regular'" font-size="16.66">or G</tspan><tspan x="33.52" y="0" font-family="'AkkuratPro-Regular'" font-size="16.66">ov</tspan><tspan x="50.512" y="0" font-family="'AkkuratPro-Regular'" font-size="16.66">e</tspan><tspan x="58.859" y="0" font-family="'AkkuratPro-Regular'" font-size="16.66">r</tspan><tspan x="64.39" y="0" font-family="'AkkuratPro-Regular'" font-size="16.66">nment</tspan></text><text transform="translate(-709.29 -33.435)"><tspan x="0" y="0" font-family="'AkkuratPro-Regular'" font-size="16.66">In</tspan><tspan x="13.228" y="0" font-family="'AkkuratPro-Regular'" font-size="16.66"> </tspan><tspan x="16.343" y="0" font-family="'AkkuratPro-Regular'" font-size="16.66">The</tspan></text><text transform="translate(-709.29 -15.593)" font-family="'AkkuratPro-Regular'" font-size="16.66">Community</text><text transform="translate(-567.68 -33.435)" font-family="'AkkuratPro-Regular'" font-size="16.66">Wha</text><text transform="translate(-534.318 -33.435)"><tspan x="0" y="0" font-family="'AkkuratPro-Regular'" font-size="16.66">t</tspan><tspan x="5.515" y="0" font-family="'AkkuratPro-Regular'" font-size="16.66" letter-spacing="-1">’</tspan><tspan x="7.896" y="0" font-family="'AkkuratPro-Regular'" font-size="16.66">s</tspan></text><text transform="translate(-567.688 -15.6)" font-family="'AkkuratPro-Regular'" font-size="16.66">On</text><text transform="translate(-462.964 -33.443)" font-family="'AkkuratPro-Regular'" font-size="16.66">K</text><text transform="translate(-452.185 -33.435)" font-family="'AkkuratPro-Regular'" font-size="16.66">oorie</text><text transform="translate(-462.964 -15.593)" font-family="'AkkuratPro-Regular'" font-size="16.66">Services</text><text transform="translate(-352.29 -33.435)"><tspan x="0" y="0" font-family="'AkkuratPro-Regular'" font-size="16.66">R</tspan><tspan x="8.813" y="0" font-family="'AkkuratPro-Regular'" font-size="16.66">eading</tspan></text><text transform="translate(-352.29 -15.593)"><tspan x="0" y="0" font-family="'AkkuratPro-Regular'" font-size="16.66">R</tspan><tspan x="8.813" y="0" font-family="'AkkuratPro-Regular'" font-size="16.66">ooms</tspan></text><text transform="translate(-240.935 -33.435)" font-family="'AkkuratPro-Regular'" font-size="16.66">Contac</text><text transform="translate(-186.83 -33.435)" font-family="'AkkuratPro-Regular'" font-size="16.66">t</text><text transform="translate(-240.948 -15.6)" font-family="'AkkuratPro-Regular'" font-size="16.66">Us</text><defs><path id="a" d="M-15.768-15.6h258.68v67.782H-15.77z"/></defs><clipPath id="b"><use xlink:href="#a" overflow="visible"/></clipPath><path clip-path="url(#b)" d="M69.09.246h.428c.104 0 .19.085.19.19v35.71c0 .104-.086.19-.19.19h-.428c-.105 0-.19-.086-.19-.19V.436c0-.106.084-.19.19-.19m-7.214 36.09h5.968c.105 0 .19-.087.19-.19V.436c0-.107-.085-.19-.19-.19h-5.968c-.104 0-.19.083-.19.19v35.71c0 .102.085.19.19.19m-5.02 0h3.716c.105 0 .19-.088.19-.19V.436c0-.108-.085-.19-.19-.19h-3.717c-.104 0-.19.082-.19.19v35.71c0 .1.086.19.19.19m13.965 0h3.89c.106 0 .19-.09.19-.19V.435c0-.108-.084-.19-.19-.19h-3.89c-.104 0-.19.082-.19.19v35.71c0 .1.086.19.19.19m5.078 0h7.47c.103 0 .188-.09.188-.19V.435c0-.108-.085-.19-.19-.19H75.9c-.104 0-.19.082-.19.19v35.71c0 .1.086.19.19.19m-21.812 0h1.466c.104 0 .19-.09.19-.19V.435c0-.108-.086-.19-.19-.19h-1.466c-.105 0-.19.082-.19.19v35.71c0 .1.084.19.19.19m-53.844-.31l.37.21c.092.053.208.02.26-.07L18.62 5.477c.053-.09.022-.207-.07-.26l-.37-.214c-.09-.053-.207-.02-.26.07L.175 35.766c-.053.09-.022.206.068.26m23.656.308h.425c.104 0 .19-.085.19-.19V.434c0-.103-.086-.19-.19-.19H23.9c-.106 0-.19.087-.19.19v35.71c0 .106.084.19.19.19m27.936 0h.428c.104 0 .19-.084.19-.19V.434c0-.102-.086-.19-.19-.19h-.428c-.104 0-.19.088-.19.19v35.71c0 .107.085.19.19.19m-5.83 0h.43c.105 0 .19-.083.19-.19V.434c0-.1-.086-.19-.19-.19h-.43c-.103 0-.188.09-.188.19v35.71c0 .108.085.19.19.19m-13.164 0h.43c.103 0 .188-.082.188-.19V.435c0-.1-.084-.19-.188-.19h-.43c-.103 0-.19.09-.19.19v35.71c0 .108.086.19.19.19m-6.347 0h.428c.104 0 .19-.082.19-.19V.435c0-.1-.086-.19-.19-.19h-.428c-.104 0-.19.09-.19.19v35.71c0 .108.086.19.19.19m127.548-21.73V1.74c0-.843.627-1.492 1.47-1.492h4.087c3.35 0 5.016 1.58 5.016 4.41v.844c0 1.815-.858 3.112-2.437 3.782.93 1.58 1.7 3.07 2.46 4.714.518 1.167-.433 2.096-1.427 2.096-.497 0-.973-.215-1.296-.907-.843-1.817-1.736-3.502-2.84-5.32h-2.067v4.736c0 .843-.65 1.49-1.493 1.49s-1.47-.647-1.47-1.49m3.01-7.437h2.442c1.23 0 2.18-.54 2.18-1.664V4.66c0-1.082-.69-1.623-2.097-1.623h-2.528v4.13zM102.13 26.002v4.475c0 2.962-1.448 5.858-5.643 5.858-4.236 0-5.62-2.896-5.62-5.858v-4.475c0-2.962 1.384-5.837 5.62-5.837 4.195 0 5.643 2.875 5.643 5.837m-2.982-.097c0-1.815-.584-3.134-2.66-3.134-2.074 0-2.658 1.3-2.658 3.138v4.476c0 1.86.584 3.156 2.658 3.156 2.076 0 2.66-1.34 2.66-3.156V25.91zM90.84 14.603V1.74c0-.843.628-1.492 1.473-1.492h4.106c3.735 0 4.95 2.292 4.95 4.454v1.123c0 2.595-1.776 4.346-4.82 4.346H93.8v4.436c0 .843-.65 1.49-1.49 1.49-.846 0-1.473-.647-1.473-1.49M93.8 7.472h2.615c1.49 0 1.965-.844 1.965-1.71V4.77c0-.843-.41-1.71-2.226-1.71H93.8v4.41zm34.707 8.086c.41.324.91.474 1.364.474.844 0 1.47-.347 1.47-1.19 0-.41-.173-.69-.41-.865-.345-.28-.65-.453-.65-1.21V1.695c0-.8-.646-1.448-1.446-1.448s-1.47.65-1.47 1.448v11.33c0 1.21.475 2.03 1.145 2.53m54.033.473c.93 0 1.88-.11 2.81-.606.498-.28.822-.778.584-1.49-.193-.628-.863-.91-1.447-.65-.69.325-1.23.368-1.75.368-1.21 0-1.794-.91-1.794-2.378v-1.99c0-1.49.69-2.377 1.9-2.377.713 0 1.145.13 1.643.368.584.26 1.232 0 1.47-.627.26-.692-.065-1.168-.56-1.493-.846-.496-1.95-.626-2.834-.626-3.005 0-4.54 2.29-4.54 5.08v1.513c0 2.83 1.32 4.906 4.518 4.906M135.152 3.49c.886 0 1.62-.692 1.62-1.62s-.734-1.622-1.62-1.622c-.93 0-1.644.692-1.644 1.62s.715 1.622 1.644 1.622m52.608 7.936V9.133c0-2.506 1.428-4.604 4.646-4.604 3.223 0 4.648 2.094 4.648 4.6v2.293c0 2.507-1.426 4.603-4.648 4.603-3.218 0-4.646-2.097-4.646-4.604m2.918 0c0 1.296.54 1.988 1.73 1.988 1.21 0 1.73-.69 1.73-1.987v-2.27c0-1.298-.52-1.99-1.73-1.99-1.19 0-1.73.692-1.73 1.99v2.27zm26.273 4.603c-.45 0-.95-.15-1.36-.475-.13-.11-.26-.24-.41-.39-.71.54-1.77.865-2.72.865-2.855 0-4.174-1.6-4.174-4.626V9.65c0-3.178 1.016-5.123 3.955-5.123.845 0 1.688.256 2.293.67l-.02-3.506c0-.8.67-1.447 1.47-1.447.8 0 1.47.65 1.47 1.448v11.07c0 .758.216.93.563 1.21.237.174.39.455.39.865-.003.843-.608 1.19-1.452 1.19m-2.42-8.367c-.454-.41-1.08-.67-1.6-.67-1.276 0-1.73.735-1.73 2.097v2.53c0 1.296.477 1.945 1.75 1.945.542 0 1.083-.196 1.58-.584v-5.31zm-37.34 19.55c.714 0 1.146.13 1.644.368.584.26 1.232 0 1.47-.626.26-.692-.065-1.168-.562-1.492-.844-.497-1.946-.626-2.832-.626-3.006 0-4.54 2.29-4.54 5.08v1.512c0 2.832 1.317 4.908 4.518 4.908.93 0 1.884-.108 2.81-.606.5-.28.824-.778.586-1.49-.193-.63-.863-.91-1.447-.65-.69.325-1.232.368-1.752.368-1.21 0-1.793-.91-1.793-2.378v-1.99c0-1.49.69-2.377 1.9-2.377m11.652-2.248h-1.664v-1.47c0-.8-.647-1.47-1.446-1.47-.8 0-1.472.67-1.472 1.47v1.47h-1.742c-.67 0-1.19.52-1.19 1.188 0 .67.52 1.21 1.19 1.21h1.738v7.525c0 .8.628 1.45 1.47 1.45.8 0 1.45-.65 1.45-1.45v-7.523h1.665c.67 0 1.19-.54 1.19-1.21 0-.67-.52-1.19-1.19-1.19m-20.375-.128c-.844 0-1.47.67-1.47 1.47v8.58c0 .8.626 1.45 1.47 1.45.8 0 1.447-.65 1.447-1.45v-8.58c0-.8-.647-1.47-1.448-1.47m0-4.282c-.93 0-1.645.692-1.645 1.62 0 .93.714 1.622 1.643 1.622.886 0 1.62-.692 1.62-1.62 0-.93-.736-1.622-1.623-1.622m31.607 8.886v2.292c0 2.507-1.426 4.604-4.647 4.604-3.22 0-4.647-2.097-4.647-4.604v-2.29c0-2.507 1.427-4.604 4.646-4.604 3.22 0 4.647 2.097 4.647 4.604m-2.917.02c0-1.296-.52-1.988-1.73-1.988-1.187 0-1.728.692-1.728 1.99v2.27c0 1.295.54 1.987 1.73 1.987 1.21 0 1.728-.696 1.728-1.99v-2.27zm-22.19-14.122c-1.21.54-2.354.69-3.394.69-3.35 0-4.54-2.225-4.54-4.733v-2.01c0-2.53 1.41-4.756 4.563-4.756 3.286 0 4.52 2.18 4.52 4.69v.93c0 .58-.455 1.034-.996 1.034h-5.166v.412c0 1.296.587 2.052 1.796 2.052 1.06 0 1.666-.15 2.422-.477.583-.236 1.232.11 1.404.736.193.67-.065 1.19-.606 1.427M169.952 9h3.353v-.28c0-1.232-.498-1.924-1.645-1.924-1.145 0-1.707.69-1.707 1.923V9zm43.364 11.55c-.93 0-1.643.693-1.643 1.62 0 .93.715 1.623 1.645 1.623.885 0 1.62-.692 1.62-1.62.002-.93-.735-1.622-1.62-1.622m13.75 14.594c0 .844-.584 1.19-1.47 1.19-.584 0-1.06-.216-1.34-.454-.153-.108-.282-.26-.433-.454-.843.714-2.01.908-2.962.908-2.615 0-3.89-1.32-3.89-3.373v-.15c0-2.053 1.49-3.285 4.28-3.285h1.923v-.41c0-1.276-.322-1.967-1.64-1.967-.933 0-1.45.214-1.947.474-1.43.736-2.575-1.123-1.256-1.99.928-.603 2.29-.797 3.436-.797 3.115 0 4.324 1.405 4.324 4.625v3.61c0 .76.24.93.563 1.21.24.195.412.455.412.865m-3.89-3.523h-1.58c-1.298 0-1.73.52-1.73 1.232v.15c0 .802.5 1.255 1.623 1.255 1.014 0 1.684-.54 1.684-1.687v-.95zM106.69 16.03c1.385 0 2.423-.41 3.18-1.102.15.26.344.474.562.627.41.324.907.474 1.362.474.843 0 1.47-.35 1.47-1.19 0-.41-.173-.69-.412-.867-.345-.28-.647-.453-.647-1.21V5.998c0-.8-.65-1.47-1.45-1.47-.8 0-1.47.67-1.47 1.47v6.398c-.366.54-.993.886-1.793.886-1.254 0-1.516-.67-1.516-1.664V6c0-.8-.67-1.47-1.47-1.47-.8 0-1.45.67-1.45 1.47v5.987c0 2.4 1.04 4.042 3.633 4.042m106.62 8.803c-.843 0-1.47.67-1.47 1.47v8.58c0 .8.63 1.45 1.47 1.45.8 0 1.45-.65 1.45-1.45v-8.58c0-.8-.65-1.47-1.45-1.47m-3.598.345c-.322-.195-.756-.324-1.34-.324-.69 0-2.032.15-3.004 1.362-.28-.543-.778-.997-1.578-1.19-.064-.023-.15-.045-.24-.045h-.214c-.89 0-1.45.347-1.45 1.19 0 .41.15.67.39.844.345.322.647.473.647 1.23v6.637c0 .8.626 1.45 1.47 1.45.8 0 1.45-.65 1.45-1.45v-6.01c.258-.93.992-1.252 1.857-1.252.584 0 .69.022.93.087.844.172 1.405-.304 1.6-.974.17-.583.02-1.21-.52-1.555m-7.098-10.598V8.57c.26-.93.994-1.255 1.857-1.255.584 0 .692.022.932.086.843.175 1.404-.3 1.6-.97.172-.583.02-1.21-.52-1.555-.324-.194-.758-.324-1.342-.324-.69 0-2.03.153-3.003 1.364-.28-.54-.778-.995-1.58-1.19-.063-.02-.15-.042-.237-.042h-.215c-.888 0-1.45.347-1.45 1.19 0 .41.15.67.39.844.345.323.647.474.647 1.23v6.64c0 .798.627 1.446 1.472 1.446.8 0 1.447-.65 1.447-1.448m-77.55-5.06v1.837c0 3.007-1.32 4.67-4.15 4.67-1.015 0-2.03-.323-2.744-.842-.107.15-.238.26-.39.368-.41.324-.906.474-1.36.474-.844 0-1.45-.347-1.45-1.19 0-.41.152-.69.392-.865.345-.28.56-.453.56-1.21V1.695c0-.8.67-1.45 1.47-1.45.803 0 1.45.65 1.45 1.45V5.37c.583-.453 1.47-.842 2.42-.842 2.96 0 3.804 1.815 3.804 4.993m-2.895-.473c0-1.32-.432-2.054-1.665-2.054-.584 0-1.21.283-1.664.736v5.275c.453.345 1.037.562 1.58.562 1.23 0 1.75-.67 1.75-1.967V9.05zm.846 15.79c-.842 0-1.47.668-1.47 1.468v8.582c0 .8.628 1.45 1.47 1.45.8 0 1.45-.65 1.45-1.45v-8.582c0-.8-.65-1.47-1.45-1.47m0-4.28c-.93 0-1.642.69-1.642 1.62 0 .93.715 1.62 1.645 1.62.885 0 1.62-.69 1.62-1.62 0-.93-.736-1.62-1.62-1.62m-12.733 0h-1.036c-2.79 0-4.173 1.62-4.173 4.323v.087h-.323c-.67 0-1.19.52-1.19 1.188 0 .67.52 1.21 1.19 1.21h.324v7.525c0 .8.626 1.45 1.47 1.45.8 0 1.45-.65 1.45-1.45v-7.523h1.383c.67 0 1.188-.54 1.188-1.21 0-.67-.52-1.19-1.187-1.19h-1.384v-.086c0-1.277.517-1.774 1.62-1.774h.67c.69 0 1.275-.562 1.275-1.275 0-.69-.584-1.275-1.276-1.275m8.53 0h-1.036c-2.79 0-4.172 1.62-4.172 4.324v.086h-.326c-.67 0-1.188.52-1.188 1.188 0 .67.52 1.21 1.188 1.21h.326v7.525c0 .8.625 1.45 1.47 1.45.8 0 1.448-.65 1.448-1.45v-7.524h1.383c.67 0 1.188-.54 1.188-1.21 0-.67-.52-1.19-1.186-1.19h-1.384v-.086c0-1.277.52-1.774 1.62-1.774h.67c.693 0 1.277-.562 1.277-1.275 0-.69-.584-1.274-1.275-1.274m44.54-.367c-.584 0-1.103.323-1.297 1.036-.93 3.222-1.966 6.702-3.177 10.183-1.19-3.46-2.162-6.92-3.092-10.117-.237-.76-.8-1.104-1.382-1.104-.867 0-1.838.777-1.492 1.902 1.146 4.086 2.486 8.258 4.02 12.69.412 1.19 1.018 1.556 1.86 1.556.757 0 1.448-.41 1.86-1.557 1.556-4.475 2.918-8.692 4.106-12.82.348-1.06-.56-1.773-1.404-1.773m-18.073 9.34v.93c0 .583-.457 1.036-.996 1.036h-5.17v.41c0 1.3.585 2.056 1.796 2.056 1.06 0 1.664-.15 2.42-.476.586-.237 1.234.108 1.406.735.195.67-.064 1.19-.605 1.426-1.21.54-2.354.692-3.394.692-3.35 0-4.54-2.227-4.54-4.735v-2.01c0-2.53 1.407-4.755 4.563-4.755 3.286 0 4.52 2.183 4.52 4.69m-2.81-.497c0-1.232-.5-1.924-1.645-1.924s-1.71.692-1.71 1.924v.28h3.354v-.28zm1.36-22.122c.712 0 1.144.13 1.64.368.585.26 1.234 0 1.47-.627.26-.693-.063-1.17-.56-1.494-.844-.496-1.947-.626-2.834-.626-3.004 0-4.538 2.29-4.538 5.08v1.512c0 2.83 1.316 4.906 4.516 4.906.93 0 1.88-.11 2.81-.606.5-.28.823-.778.585-1.49-.193-.628-.864-.91-1.448-.65-.69.325-1.232.368-1.75.368-1.21 0-1.794-.91-1.794-2.378V9.28c0-1.49.69-2.377 1.903-2.377M136.6 6c0-.8-.648-1.47-1.447-1.47-.844 0-1.47.67-1.47 1.47v8.582c0 .8.626 1.447 1.47 1.447.8 0 1.447-.65 1.447-1.45V6zm-5.075 21.213c.713 0 1.145.13 1.642.368.584.26 1.233 0 1.47-.623.26-.692-.064-1.168-.562-1.492-.842-.497-1.945-.626-2.832-.626-3.004 0-4.538 2.29-4.538 5.08v1.51c0 2.83 1.317 4.908 4.518 4.908.93 0 1.882-.108 2.81-.606.498-.28.822-.776.584-1.49-.194-.63-.864-.91-1.448-.65-.69.327-1.235.37-1.755.37-1.21 0-1.794-.91-1.794-2.38v-1.99c0-1.49.69-2.375 1.9-2.375"/><path fill="#FFF" d="M-500.764-108.02h341.14v36.244h-341.14z"/><text transform="translate(-491.244 -83.376)"><tspan x="0" y="0" fill="#666766" font-family="'AkkuratPro-Regular'" font-size="16.66">Sea</tspan><tspan x="24.59" y="0" fill="#666766" font-family="'AkkuratPro-Regular'" font-size="16.66">r</tspan><tspan x="29.754" y="0" fill="#666766" font-family="'AkkuratPro-Regular'" font-size="16.66">c</tspan><tspan x="37.118" y="0" fill="#666766" font-family="'AkkuratPro-Regular'" font-size="16.66">h our </tspan><tspan x="77.201" y="0" fill="#666766" font-family="'AkkuratPro-Regular'" font-size="16.66">w</tspan><tspan x="89.38" y="0" fill="#666766" font-family="'AkkuratPro-Regular'" font-size="16.66">ebsi</tspan><tspan x="117.701" y="0" fill="#666766" font-family="'AkkuratPro-Regular'" font-size="16.66">t</tspan><tspan x="123.049" y="0" fill="#666766" font-family="'AkkuratPro-Regular'" font-size="16.66">e</tspan><tspan x="131.079" y="0" fill="#666766" font-family="'AkkuratPro-Regular'" font-size="16.66">..</tspan></text><path d="M-197.917-108.022h38.292v36.246h-38.292z"/><defs><path id="c" d="M-1258.334-153.167h1140v5000h-1140z"/></defs><clipPath id="d"><use xlink:href="#c" overflow="visible"/></clipPath><path clip-path="url(#d)" fill="#FFF" d="M-180.31-86.623c-2.67.004-4.842-2.158-4.843-4.82 0-2.683 2.157-4.848 4.832-4.85 2.665 0 4.83 2.162 4.833 4.83.003 2.668-2.16 4.837-4.825 4.84m9.856 2.805c-.752-.76-2.847-2.866-3.604-3.62-.043-.042-.1-.068-.15-.103.693-1.11 1.075-2.27 1.14-3.53.067-1.267-.177-2.47-.74-3.608-.562-1.132-1.365-2.054-2.403-2.773-2.84-1.968-6.693-1.626-9.206.816-2.47 2.4-2.88 6.264-.95 9.19.94 1.426 2.24 2.41 3.875 2.912 2.13.652 4.153.36 6.07-.8.134.14.265.277.4.41.686.688 2.7 2.737 3.4 3.41.448.43.997.537 1.585.337 1.13-.385 1.436-1.782.58-2.646"/><text transform="translate(-546.048 -137.226)"><tspan x="0" y="0" font-family="'AkkuratPro-Regular'" font-size="11.9">A</tspan><tspan x="7.116" y="0" font-family="'AkkuratPro-Regular'" font-size="11.9">-</tspan></text><text transform="translate(-530.9 -137.226)"><tspan x="0" y="0" font-family="'AkkuratPro-Regular'" font-size="11.9">A+</tspan><tspan x="14.375" y="0" font-family="'AkkuratPro-Regular'" font-size="11.9" letter-spacing="6"> </tspan><tspan x="40.864" y="0" font-family="'AkkuratPro-Regular'" font-size="11.9">SHOP</tspan></text><text transform="translate(-456.917 -137.226)"><tspan x="26.478" y="0" font-family="'AkkuratPro-Regular'" font-size="11.9">SHARE</tspan></text><text transform="translate(-358.397 -137.226)"><tspan x="0" y="0" font-family="'AkkuratPro-Regular'" font-size="11.9">R</tspan><tspan x="6.295" y="0" font-family="'AkkuratPro-Regular'" font-size="11.9">es</tspan><tspan x="16.969" y="0" font-family="'AkkuratPro-Regular'" font-size="11.9">e</tspan><tspan x="22.884" y="0" font-family="'AkkuratPro-Regular'" font-size="11.9">t </tspan><tspan x="29.345" y="0" font-family="'AkkuratPro-Regular'" font-size="11.9">P</tspan><tspan x="35.568" y="0" font-family="'AkkuratPro-Regular'" font-size="11.9">as</tspan><tspan x="46.017" y="0" font-family="'AkkuratPro-Regular'" font-size="11.9">sw</tspan><tspan x="59.368" y="0" font-family="'AkkuratPro-Regular'" font-size="11.9">o</tspan><tspan x="65.901" y="0" font-family="'AkkuratPro-Regular'" font-size="11.9">r</tspan><tspan x="69.59" y="0" font-family="'AkkuratPro-Regular'" font-size="11.9">d | </tspan><tspan x="94.282" y="0" font-family="'AkkuratPro-Regular'" font-size="11.9">L</tspan><tspan x="99.731" y="0" font-family="'AkkuratPro-Regular'" font-size="11.9">ogin | </tspan><tspan x="140.286" y="0" font-family="'AkkuratPro-Regular'" font-size="11.9">R</tspan><tspan x="146.569" y="0" font-family="'AkkuratPro-Regular'" font-size="11.9">egi</tspan><tspan x="161.968" y="0" font-family="'AkkuratPro-Regular'" font-size="11.9">s</tspan><tspan x="166.62" y="0" font-family="'AkkuratPro-Regular'" font-size="11.9">t</tspan><tspan x="170.452" y="0" font-family="'AkkuratPro-Regular'" font-size="11.9">er</tspan></text><text transform="translate(-1230.227 -136.488)"><tspan x="0" y="0" font-family="'AkkuratPro-Regular'" font-size="11.9">Ensuring public a</tspan><tspan x="85.464" y="0" font-family="'AkkuratPro-Regular'" font-size="11.9">r</tspan><tspan x="89.153" y="0" font-family="'AkkuratPro-Regular'" font-size="11.9">c</tspan><tspan x="94.401" y="0" font-family="'AkkuratPro-Regular'" font-size="11.9">hi</tspan><tspan x="103.79" y="0" font-family="'AkkuratPro-Regular'" font-size="11.9">v</tspan><tspan x="109.454" y="0" font-family="'AkkuratPro-Regular'" font-size="11.9">es a</tspan><tspan x="128.387" y="0" font-family="'AkkuratPro-Regular'" font-size="11.9">r</tspan><tspan x="132.171" y="0" font-family="'AkkuratPro-Regular'" font-size="11.9">e accessib</tspan><tspan x="181.995" y="0" font-family="'AkkuratPro-Regular'" font-size="11.9">l</tspan><tspan x="184.756" y="0" font-family="'AkkuratPro-Regular'" font-size="11.9">e </tspan><tspan x="193.24" y="0" font-family="'AkkuratPro-Regular'" font-size="11.9">t</tspan><tspan x="197.06" y="0" font-family="'AkkuratPro-Regular'" font-size="11.9">o the G</tspan><tspan x="232.831" y="0" font-family="'AkkuratPro-Regular'" font-size="11.9">o</tspan><tspan x="239.304" y="0" font-family="'AkkuratPro-Regular'" font-size="11.9">v</tspan><tspan x="244.98" y="0" font-family="'AkkuratPro-Regular'" font-size="11.9">e</tspan><tspan x="250.942" y="0" font-family="'AkkuratPro-Regular'" font-size="11.9">r</tspan><tspan x="254.881" y="0" font-family="'AkkuratPro-Regular'" font-size="11.9">nment and peop</tspan><tspan x="338.049" y="0" font-family="'AkkuratPro-Regular'" font-size="11.9">l</tspan><tspan x="340.81" y="0" font-family="'AkkuratPro-Regular'" font-size="11.9">e </tspan><tspan x="349.294" y="0" font-family="'AkkuratPro-Regular'" font-size="11.9">o</tspan><tspan x="355.768" y="0" font-family="'AkkuratPro-Regular'" font-size="11.9">f</tspan><tspan x="359.242" y="0" font-family="'AkkuratPro-Regular'" font-size="11.9"> </tspan><tspan x="361.586" y="0" font-family="'AkkuratPro-Regular'" font-size="11.9">Vi</tspan><tspan x="371.011" y="0" font-family="'AkkuratPro-Regular'" font-size="11.9">c</tspan><tspan x="376.283" y="0" font-family="'AkkuratPro-Regular'" font-size="11.9">t</tspan><tspan x="380.114" y="0" font-family="'AkkuratPro-Regular'" font-size="11.9">oria</tspan></text></svg>