<?xml version="1.0" encoding="UTF-8" standalone="no"?>
<!-- Created with Inkscape (http://www.inkscape.org/) -->

<svg
   xmlns:dc="http://purl.org/dc/elements/1.1/"
   xmlns:cc="http://creativecommons.org/ns#"
   xmlns:rdf="http://www.w3.org/1999/02/22-rdf-syntax-ns#"
   xmlns:svg="http://www.w3.org/2000/svg"
   xmlns="http://www.w3.org/2000/svg"
   xmlns:sodipodi="http://sodipodi.sourceforge.net/DTD/sodipodi-0.dtd"
   xmlns:inkscape="http://www.inkscape.org/namespaces/inkscape"
   version="1.1"
   id="svg2"
   xml:space="preserve"
   width="903.02667"
   height="143.62666"
   viewBox="0 0 903.02667 143.62666"
   sodipodi:docname="prov_logo_white.svg"
   inkscape:version="0.92.3 (2405546, 2018-03-11)"><metadata
     id="metadata8"><rdf:RDF><cc:Work
         rdf:about=""><dc:format>image/svg+xml</dc:format><dc:type
           rdf:resource="http://purl.org/dc/dcmitype/StillImage" /><dc:title></dc:title></cc:Work></rdf:RDF></metadata><defs
     id="defs6" /><sodipodi:namedview
     pagecolor="#ffffff"
     bordercolor="#666666"
     borderopacity="1"
     objecttolerance="10"
     gridtolerance="10"
     guidetolerance="10"
     inkscape:pageopacity="0"
     inkscape:pageshadow="2"
     inkscape:window-width="1366"
     inkscape:window-height="697"
     id="namedview4"
     showgrid="false"
     inkscape:pagecheckerboard="true"
     inkscape:zoom="0.50427831"
     inkscape:cx="491.62995"
     inkscape:cy="65.662805"
     inkscape:window-x="0"
     inkscape:window-y="25"
     inkscape:window-maximized="1"
     inkscape:current-layer="g10" /><g
     id="g10"
     inkscape:groupmode="layer"
     inkscape:label="ink_ext_XXXXXX"
     transform="matrix(1.3333333,0,0,-1.3333333,0,143.62667)"><g
       id="g12"
       transform="scale(0.1)"
       style="fill:#ffffff"><path
         d="m 3921.18,272.285 c 21.29,0 34.17,-3.855 49.03,-10.984 17.42,-7.727 36.78,0 43.86,18.722 7.74,20.645 -1.93,34.852 -16.78,44.551 -25.15,14.813 -58.08,18.68 -84.53,18.68 -89.66,0 -135.47,-68.387 -135.47,-151.621 V 146.469 C 3777.29,61.9492 3816.61,0 3912.12,0 c 27.73,0 56.15,3.21875 83.89,18.0781 14.84,8.3711 24.51,23.2227 17.42,44.5117 -5.79,18.7227 -25.8,27.0899 -43.22,19.3672 -20.66,-9.6953 -36.79,-10.9882 -52.29,-10.9882 -36.1,0 -53.54,27.121 -53.54,70.9962 v 59.367 c 0,44.512 20.66,70.953 56.8,70.953 z m 151.48,633.16 c 0,23.868 -19.36,43.875 -43.23,43.875 -25.15,0 -43.87,-20.007 -43.87,-43.875 v -256.14 c 0,-23.867 18.72,-43.231 43.87,-43.231 23.87,0 43.23,19.364 43.23,43.231 z m 215.77,-27.082 c 21.29,0 34.17,-3.871 49.02,-10.992 17.42,-7.726 36.79,0 43.87,18.715 7.73,20.648 -1.94,34.859 -16.79,44.555 -25.15,14.816 -58.07,18.679 -84.52,18.679 -89.67,0 -135.48,-68.386 -135.48,-151.617 v -45.16 c 0,-84.523 39.37,-146.469 134.84,-146.469 27.73,0 56.15,3.219 83.88,18.074 14.85,8.375 24.51,23.223 17.42,44.516 -5.79,18.715 -25.8,27.086 -43.22,19.359 -20.65,-9.699 -36.79,-10.988 -52.28,-10.988 -36.11,0 -53.54,27.125 -53.54,71 v 59.363 c 0,44.52 20.66,70.965 56.8,70.965 z m -40.6,-660.285 c 0,36.789 -14.85,57.434 -49.06,57.434 -34.18,0 -50.96,-20.645 -50.96,-57.434 v -8.379 h 100.02 z m 83.88,-14.812 v -27.774 c 0,-17.422 -13.57,-30.949 -29.71,-30.949 H 4147.81 V 132.27 c 0,-38.7231 17.42,-61.3012 53.54,-61.3012 31.63,0 49.69,4.5 72.28,14.1992 17.42,7.0898 36.78,-3.211 41.94,-21.9375 5.8,-20 -1.94,-35.4922 -18.07,-42.5703 C 4261.36,4.51172 4227.18,0 4196.19,0 4096.17,0 4060.71,66.4609 4060.71,141.32 v 60.012 c 0,75.469 41.94,141.922 136.13,141.922 98.08,0 134.87,-65.164 134.87,-139.988 z m 539.41,278.718 c -17.43,0 -32.93,-9.66 -38.72,-30.949 -27.77,-96.16 -58.73,-200.035 -94.86,-303.922 -35.51,103.242 -64.52,206.485 -92.26,301.953 -7.12,22.618 -23.9,32.918 -41.3,32.918 -25.83,0 -54.85,-23.222 -44.55,-56.785 34.21,-121.957 74.22,-246.484 120.02,-378.7381 C 4691.73,10.9609 4709.8,0 4734.96,0 c 22.58,0 43.22,12.2383 55.5,46.4609 46.44,133.5431 87.1,259.3911 122.6,382.6331 10.3,31.601 -16.78,52.89 -41.94,52.89 z M 3541.75,471.035 h -30.96 c -83.23,0 -124.52,-48.375 -124.52,-129.043 v -2.605 h -9.71 c -20,0 -35.49,-15.496 -35.49,-35.457 0,-20.012 15.49,-36.145 35.49,-36.145 h 9.71 V 43.2305 C 3386.27,19.3711 3404.94,0 3430.14,0 c 23.86,0 43.22,19.3711 43.22,43.2305 V 267.785 h 41.3 c 20,0 35.46,16.133 35.46,36.145 0,19.961 -15.46,35.457 -35.46,35.457 h -41.3 v 2.605 c 0,38.078 15.5,52.895 48.39,52.895 h 20 c 20.64,0 38.07,16.785 38.07,38.074 0,20.644 -17.43,38.074 -38.07,38.074 z m -254.55,0 h -30.95 c -83.24,0 -124.54,-48.375 -124.54,-129.043 v -2.605 h -9.69 c -20.01,0 -35.5,-15.496 -35.5,-35.457 0,-20.012 15.49,-36.145 35.5,-36.145 h 9.69 V 43.2305 C 3131.71,19.3711 3150.39,0 3175.59,0 c 23.86,0 43.22,19.3711 43.22,43.2305 V 267.785 h 41.3 c 20,0 35.46,16.133 35.46,36.145 0,19.961 -15.46,35.457 -35.46,35.457 h -41.3 v 2.605 c 0,38.078 15.46,52.895 48.38,52.895 h 20.01 c 20.64,0 38.07,16.785 38.07,38.074 0,20.644 -17.43,38.074 -38.07,38.074 z m 380,0 c -27.74,0 -49.03,-20.64 -49.03,-48.375 0,-27.734 21.29,-48.379 49.03,-48.379 26.44,0 48.42,20.645 48.42,48.379 0,27.735 -21.98,48.375 -48.42,48.375 z m 0,-127.781 c -25.16,0 -43.88,-20.012 -43.88,-43.875 V 43.2305 C 3623.32,19.3711 3642.04,0 3667.2,0 c 23.86,0 43.22,19.3711 43.22,43.2305 V 299.379 c 0,23.863 -19.36,43.875 -43.22,43.875 z m -25.26,471.23 c 0,39.368 -12.88,61.301 -49.66,61.301 -17.43,0 -36.15,-8.414 -49.67,-21.933 V 696.395 c 13.52,-10.305 30.95,-16.782 47.09,-16.782 36.78,0 52.24,20.004 52.24,58.719 z m 86.5,-14.207 v -54.82 c 0,-89.715 -39.37,-139.383 -123.89,-139.383 -30.34,0 -60.65,9.66 -81.94,25.16 -3.26,-4.511 -7.13,-7.73 -11.63,-10.988 -12.28,-9.664 -27.09,-14.172 -40.66,-14.172 -25.15,0 -43.23,10.305 -43.23,35.5 0,12.239 4.51,20.645 11.64,25.801 10.3,8.375 16.74,13.527 16.74,36.145 v 330.36 c 0,23.87 20.01,43.23 43.88,43.23 23.9,0 43.26,-19.36 43.26,-43.23 V 924.16 c 17.39,13.567 43.87,25.16 72.24,25.16 88.39,0 113.59,-54.175 113.59,-149.043 z M 6043.05,649.305 v 179.39 c 7.72,27.727 29.66,37.391 55.46,37.391 17.43,0 20.65,-0.645 27.77,-2.578 25.16,-5.153 41.94,9.055 47.73,29.058 5.16,17.426 0.65,36.102 -15.49,46.45 -9.66,5.797 -22.58,9.66 -40,9.66 -20.66,0 -60.66,-4.508 -89.68,-40.653 -8.37,16.137 -23.22,29.704 -47.09,35.5 -1.94,0.645 -4.51,1.29 -7.13,1.29 h -6.44 c -26.44,0 -43.23,-10.309 -43.23,-35.5 0,-12.239 4.51,-19.965 11.63,-25.157 10.31,-9.664 19.33,-14.168 19.33,-36.746 V 649.305 c 0,-23.867 18.71,-43.231 43.9,-43.231 23.87,0 43.24,19.364 43.24,43.231 z m 211.86,-316.364 c -9.66,5.801 -22.58,9.668 -40.01,9.668 -20.64,0 -60.65,-4.511 -89.68,-40.652 -8.36,16.141 -23.22,29.695 -47.09,35.496 -1.93,0.645 -4.5,1.289 -7.11,1.289 h -6.45 c -26.44,0 -43.22,-10.301 -43.22,-35.457 0,-12.277 4.51,-20.012 11.63,-25.195 10.3,-9.66 19.35,-14.172 19.35,-36.789 V 43.2305 C 6052.33,19.3711 6071.02,0 6096.21,0 c 23.87,0 43.22,19.3711 43.22,43.2305 V 222.617 c 7.74,27.738 29.67,37.395 55.47,37.395 17.42,0 20.65,-0.645 27.78,-2.578 25.14,-5.149 41.93,9.062 47.73,29.062 5.15,17.434 0.64,36.106 -15.5,46.445 z m 107.41,10.313 c -25.15,0 -43.87,-20.012 -43.87,-43.875 V 43.2305 C 6318.45,19.3711 6337.17,0 6362.32,0 c 23.87,0 43.23,19.3711 43.23,43.2305 V 299.379 c 0,23.863 -19.36,43.875 -43.23,43.875 z m -3182.24,262.82 c 41.3,0 72.29,12.239 94.87,32.887 4.51,-7.727 10.3,-14.168 16.78,-18.715 12.24,-9.664 27.09,-14.172 40.65,-14.172 25.16,0 43.87,10.305 43.87,35.5 0,12.239 -5.15,20.645 -12.28,25.801 -10.3,8.375 -19.35,13.527 -19.35,36.145 v 201.925 c 0,23.868 -19.36,43.875 -43.23,43.875 -23.87,0 -43.87,-20.007 -43.87,-43.875 v -190.98 c -10.95,-16.137 -29.66,-26.442 -53.53,-26.442 -37.43,0 -45.2,20 -45.2,49.665 v 167.757 c 0,23.868 -20,43.875 -43.87,43.875 -23.87,0 -43.23,-20.007 -43.23,-43.875 V 726.742 c 0,-71.64 30.99,-120.668 108.39,-120.668 z m 3476.5,-465.398 h -47.09 c -38.72,0 -51.64,-15.496 -51.64,-36.785 v -4.5121 c 0,-23.9101 14.86,-37.4297 48.42,-37.4297 30.3,0 50.31,16.1406 50.31,50.3088 z M 6772.73,35.5117 C 6772.73,10.3086 6755.31,0 6728.87,0 c -17.43,0 -31.63,6.44922 -40.01,13.5313 -4.54,3.2578 -8.41,7.7695 -12.92,13.5585 C 6650.78,5.80078 6615.93,0 6587.55,0 6509.47,0 6471.4,39.3711 6471.4,100.668 v 4.512 c 0,61.297 44.51,98.086 127.74,98.086 h 57.44 V 215.5 c 0,38.074 -9.66,58.723 -49.02,58.723 -27.77,0 -43.23,-6.438 -58.08,-14.211 -42.59,-21.934 -76.79,33.574 -37.43,59.367 27.73,18.074 68.38,23.875 102.59,23.875 92.94,0 129.04,-41.941 129.04,-138.055 V 97.4453 c 0,-22.6133 7.12,-27.7656 16.78,-36.1445 7.09,-5.7891 12.27,-13.5508 12.27,-25.7891 z M 6362.32,471.035 c -27.73,0 -49.02,-20.64 -49.02,-48.375 0,-27.734 21.29,-48.379 49.02,-48.379 26.45,0 48.42,20.645 48.42,48.379 0,27.735 -21.97,48.375 -48.42,48.375 z M 5068.09,815.773 h 100.02 v 8.372 c 0,36.785 -14.85,57.433 -49.07,57.433 -34.17,0 -50.95,-20.648 -50.95,-57.433 z m 149.68,-189.05 c -36.14,-16.141 -70.31,-20.649 -101.31,-20.649 -100,0 -135.47,66.453 -135.47,141.317 v 60.007 c 0,75.469 41.94,141.922 136.12,141.922 98.09,0 134.87,-65.164 134.87,-139.988 v -27.773 c 0,-17.426 -13.55,-30.95 -29.69,-30.95 h -154.2 v -12.277 c 0,-38.715 17.43,-61.297 53.53,-61.297 31.64,0 49.71,4.512 72.29,14.207 17.43,7.086 36.78,-3.219 41.94,-21.933 5.79,-20.004 -1.93,-35.496 -18.08,-42.586 z m 662.31,-421.524 c 0,38.719 -15.5,59.364 -51.64,59.364 -35.46,0 -51.6,-20.645 -51.6,-59.364 v -67.785 c 0,-38.6796 16.14,-59.3242 51.6,-59.3242 36.14,0 51.64,20.6446 51.64,59.3242 z m 87.1,0.645 v -68.43 C 5967.18,62.5898 5924.59,0 5828.44,0 c -96.12,0 -138.7,62.5898 -138.7,137.414 v 68.43 c 0,74.824 42.58,137.41 138.7,137.41 96.15,0 138.74,-62.586 138.74,-137.41 z m -943.4,265.191 c -27.74,0 -49.02,-20.64 -49.02,-48.375 0,-27.734 21.28,-48.379 49.02,-48.379 26.44,0 48.42,20.645 48.42,48.379 0,27.735 -21.98,48.375 -48.42,48.375 z m 0,-127.781 c -25.16,0 -43.88,-20.012 -43.88,-43.875 V 43.2305 C 4979.9,19.3711 4998.62,0 5023.78,0 5047.65,0 5067,19.3711 5067,43.2305 V 299.379 c 0,23.863 -19.35,43.875 -43.22,43.875 z m 608.12,-3.867 h -49.66 v 43.867 c 0,23.906 -19.36,43.918 -43.24,43.918 -23.9,0 -43.9,-20.012 -43.9,-43.918 v -43.867 h -2.36 -7.95 -41.71 c -20,0 -35.5,-15.496 -35.5,-35.457 0,-20.012 15.5,-36.145 35.5,-36.145 h 41.71 7.95 2.34 V 43.2305 C 5495.08,19.3711 5513.8,0 5538.96,0 c 23.86,0 43.22,19.3711 43.22,43.2305 V 154.848 h 0.06 v 112.937 h 49.66 c 20,0 35.5,16.133 35.5,36.145 0,19.961 -15.5,35.457 -35.5,35.457 z m -347.72,-67.102 c 21.29,0 34.17,-3.855 49.02,-10.984 17.43,-7.727 36.79,0 43.87,18.722 7.73,20.645 -1.93,34.852 -16.78,44.551 -25.15,14.813 -58.08,18.68 -84.53,18.68 -89.67,0 -135.47,-68.387 -135.47,-151.621 V 146.469 C 5140.29,61.9492 5179.61,0 5275.13,0 c 27.72,0 56.14,3.21875 83.87,18.0781 14.85,8.3711 24.52,23.2227 17.43,44.5117 -5.8,18.7227 -25.8,27.0899 -43.23,19.3672 -20.65,-9.6953 -36.78,-10.9882 -52.28,-10.9882 -36.11,0 -53.54,27.121 -53.54,70.9962 v 59.367 c 0,44.512 20.66,70.953 56.8,70.953 z m 1114.46,583.492 c -13.56,12.239 -32.27,20.008 -47.77,20.008 -38.08,0 -51.6,-21.933 -51.6,-62.59 v -75.507 c 0,-38.715 14.17,-58.075 52.24,-58.075 16.15,0 32.28,5.832 47.13,17.426 z m 72.25,-249.703 c -13.57,0 -28.38,4.508 -40.66,14.172 -3.85,3.258 -7.72,7.121 -12.23,11.633 -21.29,-16.145 -52.92,-25.805 -81.3,-25.805 -85.17,0 -124.53,47.739 -124.53,138.055 v 52.285 c 0,94.863 30.31,152.906 118.05,152.906 25.19,0 50.35,-7.73 68.42,-20.007 L 6398,1033.88 c 0,23.87 20,43.23 43.87,43.23 23.86,0 43.87,-19.36 43.87,-43.23 V 703.52 c 0,-22.618 6.44,-27.77 16.79,-36.145 7.08,-5.156 11.59,-13.562 11.59,-25.801 0,-25.195 -18.08,-35.5 -43.23,-35.5 z M 5686.7,743.488 c 0,-38.679 16.14,-59.332 51.6,-59.332 36.14,0 51.64,20.653 51.64,59.332 v 67.774 c 0,38.722 -15.5,59.371 -51.64,59.371 -35.46,0 -51.6,-20.649 -51.6,-59.371 z m -87.09,0 v 68.418 c 0,74.824 42.58,137.414 138.69,137.414 96.15,0 138.74,-62.59 138.74,-137.414 v -68.418 c 0,-74.824 -42.59,-137.414 -138.74,-137.414 -96.11,0 -138.69,62.59 -138.69,137.414 z m -1570.18,236.86 c 26.44,0 48.42,20.642 48.42,48.382 0,27.73 -21.98,48.38 -48.42,48.38 -27.73,0 -49.02,-20.65 -49.02,-48.38 0,-27.74 21.29,-48.382 49.02,-48.382 z M 5443.94,606.074 c 27.73,0 56.14,3.219 83.87,18.074 14.86,8.375 24.51,23.223 17.42,44.516 -5.79,18.715 -25.79,27.086 -43.22,19.359 -20.64,-9.699 -36.79,-10.988 -52.28,-10.988 -36.11,0 -53.53,27.125 -53.53,71 v 59.363 c 0,44.52 20.65,70.965 56.79,70.965 21.29,0 34.17,-3.871 49.02,-10.992 17.43,-7.726 36.79,0 43.87,18.715 7.73,20.648 -1.92,34.859 -16.78,44.555 -25.15,14.816 -58.08,18.679 -84.52,18.679 -89.68,0 -135.48,-68.386 -135.48,-151.617 v -45.16 c 0,-84.523 39.36,-146.469 134.84,-146.469 z m -1612.71,14.172 c 12.24,-9.664 27.09,-14.172 40.65,-14.172 25.15,0 43.87,10.305 43.87,35.5 0,12.239 -5.19,20.645 -12.27,25.801 -10.31,8.375 -19.36,13.527 -19.36,36.145 v 330.36 c 0,23.87 -19.36,43.23 -43.23,43.23 -23.87,0 -43.87,-19.36 -43.87,-43.23 V 695.75 c 0,-36.145 14.2,-60.656 34.21,-75.504 z M 2795.32,861.574 h 78.05 c 44.55,0 58.72,25.196 58.72,50.996 v 29.664 c 0,25.157 -12.24,50.996 -66.45,50.996 h -70.32 z M 2706.9,648.66 v 383.93 c 0,25.16 18.72,44.52 43.91,44.52 h 122.56 c 111.64,0 147.79,-68.43 147.79,-132.942 v -33.531 c 0,-77.438 -52.93,-129.723 -143.89,-129.723 h -81.95 V 648.66 c 0,-25.156 -19.36,-44.515 -44.51,-44.515 -25.19,0 -43.91,19.359 -43.91,44.515 z m 247.83,-337.34 c 0,54.18 -17.43,93.547 -79.37,93.547 -61.95,0 -79.37,-38.722 -79.37,-93.547 V 177.746 c 0,-55.508 17.42,-94.1874 79.37,-94.1874 61.94,0 79.37,40.0074 79.37,94.1874 z m 89.03,-2.879 V 174.855 C 3043.76,86.4688 3000.53,0.0117188 2875.36,0.0117188 2748.9,0.0117188 2707.6,86.4688 2707.6,174.855 v 133.586 c 0,88.387 41.3,174.2 167.76,174.2 125.17,0 168.4,-85.813 168.4,-174.2 z m 1639.37,562.192 h 72.9 c 36.78,0 65.15,16.137 65.15,49.668 v 25.156 c 0,32.273 -20.64,48.414 -62.59,48.414 h -75.46 z M 4593.26,648.66 v 383.93 c 0,25.16 18.72,44.52 43.91,44.52 h 121.92 c 100.02,0 149.72,-47.13 149.72,-131.653 v -25.156 c 0,-54.18 -25.62,-92.891 -72.71,-112.895 27.74,-47.129 50.78,-91.652 73.35,-140.676 15.46,-34.851 -12.91,-62.585 -42.57,-62.585 -14.86,0 -29.07,6.437 -38.73,27.089 -25.15,54.211 -51.79,104.524 -84.68,158.739 h -61.78 V 648.66 c 0,-25.156 -19.36,-44.515 -44.52,-44.515 -25.19,0 -43.91,19.359 -43.91,44.515 z M 786.383,0.0117188 h 12.773 c 3.129,0 5.668,2.5390612 5.668,5.6796912 V 1071.51 c 0,3.13 -2.539,5.67 -5.668,5.67 h -12.773 c -3.137,0 -5.676,-2.54 -5.676,-5.67 V 5.69141 c 0,-3.14063 2.539,-5.6796912 5.676,-5.6796912 z m 189.461,0 h 12.769 c 3.133,0 5.668,2.5390612 5.668,5.6796912 V 1071.51 c 0,3.13 -2.535,5.67 -5.668,5.67 h -12.769 c -3.133,0 -5.668,-2.54 -5.668,-5.67 V 5.69141 c 0,-3.14063 2.535,-5.6796912 5.668,-5.6796912 z m 392.886,0 h 12.77 c 3.13,0 5.67,2.5390612 5.67,5.6796912 V 1071.51 c 0,3.13 -2.54,5.67 -5.67,5.67 h -12.77 c -3.13,0 -5.67,-2.54 -5.67,-5.67 V 5.69141 c 0,-3.14063 2.54,-5.6796912 5.67,-5.6796912 z m 173.96,0 h 12.78 c 3.13,0 5.67,2.5390612 5.67,5.6796912 V 1071.51 c 0,3.13 -2.54,5.67 -5.67,5.67 h -12.78 c -3.13,0 -5.67,-2.54 -5.67,-5.67 V 5.69141 c 0,-3.14063 2.54,-5.6796912 5.67,-5.6796912 z m -833.819,0 h 12.777 c 3.133,0 5.672,2.5390612 5.672,5.6796912 V 1071.51 c 0,3.13 -2.539,5.67 -5.672,5.67 h -12.777 c -3.129,0 -5.668,-2.54 -5.668,-5.67 V 5.69141 c 0,-3.14063 2.539,-5.6796912 5.668,-5.6796912 z M 2.83594,9.25 13.8906,2.85156 c 2.7149,-1.5625 6.1836,-0.64062 7.75,2.07032 L 551.34,921.082 c 1.566,2.711 0.64,6.18 -2.07,7.75 l -11.063,6.391 c -2.711,1.566 -6.176,0.64 -7.742,-2.071 L 0.761719,16.9883 C -0.800781,14.2813 0.121094,10.8086 2.83594,9.25 Z M 1609.86,0.0117188 h 43.78 c 3.14,0 5.67,2.5390612 5.67,5.6796912 V 1071.51 c 0,3.13 -2.53,5.67 -5.67,5.67 h -43.78 c -3.13,0 -5.67,-2.54 -5.67,-5.67 V 5.69141 c 0,-3.14063 2.54,-5.6796912 5.67,-5.6796912 z m 651.07,0 h 222.9 c 3.13,0 5.67,2.5390612 5.67,5.6796912 V 1071.51 c 0,3.13 -2.54,5.67 -5.67,5.67 h -222.9 c -3.13,0 -5.67,-2.54 -5.67,-5.67 V 5.69141 c 0,-3.14063 2.54,-5.6796912 5.67,-5.6796912 z m -151.57,0 h 116.11 c 3.13,0 5.67,2.5390612 5.67,5.6796912 V 1071.51 c 0,3.13 -2.54,5.67 -5.67,5.67 h -116.11 c -3.13,0 -5.67,-2.54 -5.67,-5.67 V 5.69141 c 0,-3.14063 2.54,-5.6796912 5.67,-5.6796912 z m -416.82,0 h 110.95 c 3.13,0 5.67,2.5390612 5.67,5.6796912 V 1071.51 c 0,3.13 -2.54,5.67 -5.67,5.67 h -110.95 c -3.13,0 -5.67,-2.54 -5.67,-5.67 V 5.69141 c 0,-3.14063 2.54,-5.6796912 5.67,-5.6796912 z m 149.85,0 h 178.12 c 3.13,0 5.67,2.5390612 5.67,5.6796912 V 1071.51 c 0,3.13 -2.54,5.67 -5.67,5.67 h -178.12 c -3.14,0 -5.67,-2.54 -5.67,-5.67 V 5.69141 c 0,-3.14063 2.53,-5.6796912 5.67,-5.6796912 z M 2057.69,1077.18 h 12.77 c 3.13,0 5.67,-2.54 5.67,-5.67 V 5.69141 c 0,-3.14063 -2.54,-5.6796912 -5.67,-5.6796912 h -12.77 c -3.13,0 -5.67,2.5390612 -5.67,5.6796912 V 1071.51 c 0,3.13 2.54,5.67 5.67,5.67"
         style="fill:#ffffff;fill-opacity:1;fill-rule:nonzero;stroke:none"
         id="path14"
         inkscape:connector-curvature="0" /></g></g></svg>