<svg xmlns="http://www.w3.org/2000/svg" xmlns:xlink="http://www.w3.org/1999/xlink" width="85.25" height="47.6" viewBox="0 0 85.25 47.6"><path fill="#231F20" d="M39.072 25.708h2.95-2.95z"/><defs><path id="a" d="M-9.834 0H95.19v47.6H-9.834z"/></defs><clipPath id="b"><use xlink:href="#a" overflow="visible"/></clipPath><path clip-path="url(#b)" fill="#231F20" d="M51.44 14.727c-3.227 0-5.815 2.42-5.815 5.61 0 3.194 2.59 5.614 5.814 5.614s5.81-2.42 5.81-5.61-2.588-5.61-5.813-5.61m0 8.3c-1.49 0-2.72-1.215-2.72-2.69 0-1.474 1.228-2.69 2.72-2.69s2.718 1.217 2.718 2.69-1.228 2.69-2.72 2.69m16.298-4.15c0-2.25-1.81-3.91-4.093-3.91h-4.93V25.71h2.95v-2.92h1.39l1.345 2.92h3.312l-1.84-3.607c1.043-.714 1.867-1.775 1.867-3.22m-4.092 1.26H61.66v-2.534h1.98c.666 0 1.1.745 1.1 1.273 0 .53-.433 1.26-1.098 1.26"/><defs><path id="c" d="M.668 0H84.68v47.6H.67z"/></defs><clipPath id="d"><use xlink:href="#c" overflow="visible"/></clipPath><path clip-path="url(#d)" fill="#231F20" d="M69.524 14.97h2.95v10.737h-2.95zm10.19 0h-1.108l-4.974 10.737h3.163l.52-1.217h3.69l.52 1.217h3.163L79.713 14.97zm-1.5 6.97l.915-2.09h.06l.913 2.09h-1.89z"/><defs><path id="e" d="M-9.834 0H95.19v47.6H-9.834z"/></defs><clipPath id="f"><use xlink:href="#e" overflow="visible"/></clipPath><path clip-path="url(#f)" fill="#231F20" d="M37.847 14.97L44.784 0H.67l6.98 15.067h3.254l2.67 5.764 2.672-5.76h3.263l-4.89 10.545h-2.086L22.724 47.6 33.15 25.105c-.81.47-1.75.737-2.75.737-3.148 0-5.65-2.376-5.65-5.512 0-3.137 2.502-5.513 5.65-5.513 2.01 0 3.77 1.083 4.724 2.686l-2.46 1.477c-.464-.76-1.308-1.295-2.264-1.295-1.46 0-2.642 1.196-2.642 2.646s1.18 2.646 2.643 2.646c.96 0 1.8-.52 2.268-1.294l1.62.975 2.34-5.05h2.446v8.104h2.95v-8.104h2.966V14.97h-7.14zm-14.44 10.643h-3.013V15.067h3.013v10.546zm15.666.095h2.95m.42 5.737c-.422-.26-.936-.455-1.522-.455-.6 0-1.025.237-1.025.644 0 .395.465.514 1.108.622l.304.05c.96.157 1.71.567 1.71 1.503 0 1.184-1.042 1.75-2.196 1.75-.812 0-1.687-.24-2.263-.705l.557-.862c.39.31 1.022.578 1.712.578.595 0 1.055-.232 1.055-.647 0-.372-.39-.51-1.14-.63l-.34-.052c-.947-.15-1.64-.567-1.64-1.54 0-1.12 1-1.7 2.143-1.7.75 0 1.376.17 2.05.572l-.506.872zm3.932 1.19h-1.347v1.358c0 .465.246.633.557.633.238 0 .495-.12.698-.242l.368.783c-.323.222-.7.39-1.23.39-.92 0-1.39-.52-1.39-1.482v-1.44h-.718v-.89h.718V30.64h1v1.105h1.348v.89zm1.477.967c0 .568.372 1.024.96 1.024.57 0 .958-.437.958-1.024s-.387-1.023-.958-1.023c-.588-.004-.96.453-.96 1.02m2.866 1.86h-.98v-.41c-.24.3-.602.507-1.11.507-1.025 0-1.8-.84-1.8-1.958 0-1.117.774-1.957 1.8-1.957.51 0 .865.207 1.11.51v-.41h.98v3.717zm3.594-2.826h-1.348v1.358c0 .465.246.633.558.633.238 0 .495-.12.697-.242l.365.783c-.325.222-.702.39-1.23.39-.92 0-1.394-.52-1.394-1.482v-1.44h-.716v-.89h.717V30.64h1v1.105h1.35v.89zm1.488.618h1.645c-.093-.476-.38-.744-.81-.744-.47 0-.748.28-.836.742m2.65.345c0 .115-.01.254-.02.34H55.79c.107.535.484.77.956.77.32 0 .67-.13.937-.357l.588.647c-.422.387-.96.563-1.584.563-1.14 0-1.93-.774-1.93-1.945 0-1.17.77-1.968 1.88-1.968 1.07 0 1.804.792 1.81 1.95M43.413 37.72l-.77.758c-.304-.35-.75-.564-1.298-.564-.982 0-1.696.72-1.696 1.77 0 1.096.75 1.782 1.68 1.782.875 0 1.385-.422 1.526-1.185H41.49v-.89h2.47c.012.102.016.2.016.302 0 1.627-1.1 2.774-2.624 2.774-1.488 0-2.808-1.048-2.808-2.78 0-1.624 1.185-2.786 2.835-2.786.85 0 1.556.306 2.033.824m2.086 2.784c0 .604.42 1.024.985 1.024s.99-.42.99-1.024c0-.602-.426-1.023-.99-1.023s-.986.42-.986 1.023m3 0c0 1.12-.855 1.957-2.015 1.957-1.155 0-2.006-.837-2.006-1.957s.85-1.957 2.005-1.957c1.16 0 2.014.836 2.014 1.956m2.723 1.862h-1.156L48.6 38.65h1.088l.963 2.662.974-2.662h1.056m1.136 1.507h1.646c-.092-.476-.38-.744-.81-.744-.47 0-.748.284-.836.744m2.65.345c0 .115-.007.253-.018.338H53.81c.11.537.485.77.957.77.322 0 .67-.13.94-.356l.586.646c-.42.387-.96.563-1.584.563-1.14 0-1.93-.773-1.93-1.944 0-1.17.765-1.97 1.88-1.97 1.07 0 1.8.79 1.805 1.95m3.204-1.87l-.15.994c-.166-.074-.404-.12-.607-.12-.464 0-.78.283-.78.837v2.025H57.13V38.65h.97v.405c.234-.35.592-.506 1.048-.506.214 0 .383.03.522.08M63.713 40v2.367h-1V40.32c0-.535-.27-.83-.727-.83-.43 0-.787.28-.787.84v2.037h-1.004V38.65h.975v.437c.266-.396.673-.537 1.095-.537.843 0 1.446.587 1.446 1.45m6.89 0v2.367h-.996V40.32c0-.535-.273-.83-.726-.83-.43 0-.788.28-.788.84v2.037h-1V40.32c0-.535-.27-.83-.727-.83-.43 0-.787.28-.787.84v2.037h-1.002V38.65h.975v.437c.265-.396.672-.537 1.094-.537.537 0 .978.242 1.227.637.29-.472.776-.637 1.265-.637.873 0 1.464.587 1.464 1.45m1.67.157h1.647c-.092-.476-.38-.744-.81-.744-.47 0-.748.284-.836.744m2.653.345c0 .115-.008.253-.02.338h-2.636c.108.537.484.77.956.77.322 0 .67-.13.94-.356l.586.646c-.42.387-.96.563-1.585.563-1.14 0-1.93-.773-1.93-1.944 0-1.17.768-1.97 1.88-1.97 1.07 0 1.804.79 1.808 1.95M79.1 40v2.367h-1V40.32c0-.535-.27-.83-.725-.83-.43 0-.787.28-.787.84v2.037h-1V38.65h.973v.437c.27-.396.675-.537 1.098-.537.843 0 1.445.587 1.445 1.45m3.524-.46H81.28v1.357c0 .465.245.633.557.633.238 0 .495-.12.697-.242l.368.783c-.323.225-.7.394-1.23.394-.92 0-1.392-.52-1.392-1.483v-1.44h-.717v-.89h.718v-1.104h1v1.105h1.35v.89z"/></svg>